<svg width="228" height="6" viewBox="0 0 228 6" fill="none" xmlns="http://www.w3.org/2000/svg">
<g id="dubble line">
<path id="Line 5" d="M5 2.5L-2.43479e-09 0.113249L2.43479e-09 5.88675L5 3.5L5 2.5ZM5.08929 3.5L11.1964 3.5L11.1964 2.5L5.08929 2.5L5.08929 3.5ZM13.2321 3.5L19.3393 3.5L19.3393 2.5L13.2321 2.5L13.2321 3.5ZM21.375 3.5L27.4821 3.5L27.4821 2.5L21.375 2.5L21.375 3.5ZM29.5179 3.5L35.625 3.5L35.625 2.5L29.5179 2.5L29.5179 3.5ZM37.6607 3.5L43.7679 3.5L43.7679 2.5L37.6607 2.5L37.6607 3.5ZM45.8036 3.5L51.9107 3.5L51.9107 2.5L45.8036 2.5L45.8036 3.5ZM53.9464 3.5L60.0536 3.5L60.0536 2.5L53.9464 2.5L53.9464 3.5ZM62.0893 3.5L68.1964 3.5L68.1964 2.5L62.0893 2.5L62.0893 3.5ZM70.2321 3.5L76.3393 3.5L76.3393 2.5L70.2321 2.5L70.2321 3.5ZM78.375 3.5L84.4821 3.5L84.4821 2.5L78.375 2.5L78.375 3.5ZM86.5178 3.5L92.625 3.5L92.625 2.5L86.5178 2.5L86.5178 3.5ZM94.6607 3.5L100.768 3.5L100.768 2.5L94.6607 2.5L94.6607 3.5ZM102.804 3.5L108.911 3.5L108.911 2.5L102.804 2.5L102.804 3.5ZM110.946 3.5L114 3.5L114 2.5L110.946 2.5L110.946 3.5Z" fill="#009CFF"/>
<path id="Line 6" d="M223 3.5L228 5.88675L228 0.113248L223 2.5L223 3.5ZM114 3.5L117.054 3.5L117.054 2.5L114 2.5L114 3.5ZM119.089 3.5L125.196 3.5L125.196 2.5L119.089 2.5L119.089 3.5ZM127.232 3.5L133.339 3.5L133.339 2.5L127.232 2.5L127.232 3.5ZM135.375 3.5L141.482 3.5L141.482 2.5L135.375 2.5L135.375 3.5ZM143.518 3.5L149.625 3.5L149.625 2.5L143.518 2.5L143.518 3.5ZM151.661 3.5L157.768 3.5L157.768 2.5L151.661 2.5L151.661 3.5ZM159.804 3.5L165.911 3.5L165.911 2.5L159.804 2.5L159.804 3.5ZM167.946 3.5L174.054 3.5L174.054 2.5L167.946 2.5L167.946 3.5ZM176.089 3.5L182.196 3.5L182.196 2.5L176.089 2.5L176.089 3.5ZM184.232 3.5L190.339 3.5L190.339 2.5L184.232 2.5L184.232 3.5ZM192.375 3.5L198.482 3.5L198.482 2.5L192.375 2.5L192.375 3.5ZM200.518 3.5L206.625 3.5L206.625 2.5L200.518 2.5L200.518 3.5ZM208.661 3.5L214.768 3.5L214.768 2.5L208.661 2.5L208.661 3.5ZM216.804 3.5L222.911 3.5L222.911 2.5L216.804 2.5L216.804 3.5Z" fill="black"/>
</g>
</svg>
