<svg width="20" height="25" viewBox="0 0 20 25" fill="none" xmlns="http://www.w3.org/2000/svg">
<path id="Vector" d="M9.20519 24.4956C2.10071 14.2105 0.781982 13.1549 0.781982 9.375C0.781982 4.19731 4.98513 0 10.17 0C15.3549 0 19.558 4.19731 19.558 9.375C19.558 13.1549 18.2393 14.2105 11.1348 24.4956C10.6686 25.1682 9.67136 25.1681 9.20519 24.4956ZM10.17 13.2812C12.3304 13.2812 14.0817 11.5324 14.0817 9.375C14.0817 7.21763 12.3304 5.46875 10.17 5.46875C8.00963 5.46875 6.25833 7.21763 6.25833 9.375C6.25833 11.5324 8.00963 13.2812 10.17 13.2812Z" fill="white"/>
</svg>
